<svg width="50" height="50" viewBox="0 0 50 50" fill="none" xmlns="http://www.w3.org/2000/svg">
<g clip-path="url(#clip0_449_1076)">
<path d="M25 0C11.1925 0 0 11.4722 0 25.6247C0 36.9586 7.1875 46.5576 17.1375 49.9375C18.35 50.1297 18.8125 49.384 18.8125 48.7203C18.8125 48.1105 18.7825 46.0938 18.7825 43.9464C12.5 45.1329 10.875 42.3782 10.375 40.9355C9.81991 39.5342 8.94044 38.2924 7.8125 37.3173C6.9375 36.8356 5.6875 35.6517 7.78 35.6184C9.405 35.7978 10.8375 36.7792 11.625 38.2449L11.6325 38.2603C11.9754 38.8881 12.4356 39.4405 12.9869 39.8859C13.5381 40.3313 14.1696 40.661 14.8452 40.8561C15.5208 41.0513 16.2273 41.108 16.9244 41.0232C17.6214 40.9383 18.2953 40.7135 18.9075 40.3615C19.015 39.0547 19.5825 37.8401 20.5 36.933C14.9375 36.2923 9.125 34.0809 9.125 24.2794C9.09022 21.7332 10.007 19.2697 11.6875 17.3941C10.9233 15.1807 11.0127 12.7516 11.9375 10.6035C11.9375 10.6035 14.03 9.92959 18.8125 13.2301C22.9032 12.0768 27.2218 12.0768 31.3125 13.2301C36.0925 9.89884 38.1875 10.6035 38.1875 10.6035C39.1125 12.7509 39.2025 15.1801 38.4375 17.3941C40.1228 19.2666 41.0404 21.7321 41 24.2794C41 34.1142 35.155 36.2923 29.595 36.933C30.8 38.1886 31.4175 39.9157 31.2825 41.6735C31.2825 45.0996 31.25 47.8542 31.25 48.7203C31.2475 48.9205 31.2914 49.1185 31.3782 49.2979C31.4649 49.4773 31.5921 49.6329 31.7491 49.7521C31.9061 49.8712 32.0885 49.9504 32.2812 49.9831C32.4739 50.0157 32.6714 50.001 32.8575 49.9401C42.81 46.5602 50 36.9611 50 25.6247C50 11.4722 38.8075 0 25 0Z" fill="white"/>
</g>
<defs>
<clipPath id="clip0_449_1076">
<rect width="50" height="50" fill="white"/>
</clipPath>
</defs>
</svg>
