<svg width="50" height="50" viewBox="0 0 50 50" fill="none" xmlns="http://www.w3.org/2000/svg">
<g clip-path="url(#clip0_449_1073)">
<path d="M6.17348 11.4706H6.09899C5.31028 11.5199 4.51989 11.4058 3.7773 11.1355C3.03471 10.8652 2.35593 10.4445 1.78344 9.89978C1.21096 9.35502 0.757107 8.69794 0.450306 7.96968C0.143506 7.24142 -0.00963611 6.45766 0.000469461 5.66747C0.010575 4.87729 0.183711 4.0977 0.509035 3.37752C0.834359 2.65734 1.30487 2.01208 1.89109 1.48214C2.47732 0.95221 3.16665 0.549012 3.9159 0.297798C4.66516 0.0465837 5.45821 -0.0472361 6.2454 0.0222126C7.03413 -0.0328855 7.82573 0.0755286 8.57059 0.34066C9.31546 0.605792 9.99753 1.02193 10.5741 1.56298C11.1506 2.10403 11.6091 2.75834 11.921 3.48489C12.2328 4.21144 12.3912 4.99457 12.3862 5.7852C12.3813 6.57583 12.213 7.35692 11.8921 8.07949C11.5712 8.80207 11.1044 9.45056 10.5212 9.98433C9.93787 10.5181 9.25063 10.9256 8.50249 11.1814C7.75435 11.4371 6.96145 11.5356 6.17348 11.4706ZM1.07219 19.1765H11.3467V50H1.07219V19.1765ZM38.3173 19.1765C36.586 19.1812 34.8782 19.577 33.3214 20.3345C31.7647 21.092 30.3992 22.1915 29.3271 23.5508V19.1765H19.0526V50H29.3271V35.8726C29.3271 34.5101 29.8683 33.2034 30.8318 32.24C31.7952 31.2765 33.1019 30.7353 34.4643 30.7353C35.8268 30.7353 37.1335 31.2765 38.0969 32.24C39.0604 33.2034 39.6016 34.5101 39.6016 35.8726V50H49.8761V30.7353C49.8761 27.6697 48.6583 24.7297 46.4906 22.562C44.3229 20.3943 41.3829 19.1765 38.3173 19.1765Z" fill="white"/>
</g>
<defs>
<clipPath id="clip0_449_1073">
<rect width="50" height="50" fill="white"/>
</clipPath>
</defs>
</svg>
